<svg width="313" height="48" viewBox="0 0 313 48" fill="none" xmlns="http://www.w3.org/2000/svg">
<g clip-path="url(#clip0_2_210)">
<path d="M67.3055 16.9936C67.4684 15.9241 67.7642 14.8793 68.186 13.8837C68.5565 13.0055 69.1012 12.2121 69.7868 11.5518C70.4971 10.8909 71.3445 10.3964 72.268 10.1037C73.4054 9.751 74.5918 9.58362 75.7819 9.6079H104.284C105.27 9.6079 105.693 10.1024 105.551 11.0913L105.112 13.9131C104.971 14.902 104.396 15.3965 103.386 15.3965H76.7034C74.9672 15.3965 73.9703 16.2685 73.7126 18.0126L72.4457 25.9273C72.4221 26.0315 72.4097 26.1379 72.4086 26.2448V26.5269C72.4086 27.8699 73.1478 28.5414 74.6262 28.5414H101.319C102.302 28.5414 102.725 29.0359 102.585 30.0248L102.127 32.8525C101.986 33.8414 101.423 34.3359 100.438 34.3359H71.9166C69.8512 34.3359 68.2849 33.8414 67.2177 32.8525C66.1505 31.8635 65.6162 30.4618 65.6149 28.6472C65.6132 28.0792 65.6603 27.5121 65.7555 26.9522L67.3055 16.9936Z" fill="#7F8C8D"/>
<path d="M107.716 16.9936C107.879 15.9241 108.174 14.8794 108.596 13.8837C108.967 13.0055 109.511 12.2122 110.197 11.5518C110.908 10.8909 111.756 10.3964 112.68 10.1037C113.818 9.75084 115.004 9.58345 116.194 9.60794H141.338C143.404 9.60794 144.971 10.1024 146.039 11.0913C147.108 12.0803 147.641 13.482 147.64 15.2966C147.642 15.8653 147.595 16.433 147.499 16.9936L145.951 26.9581C145.792 28.0366 145.497 29.0903 145.071 30.0934C144.697 30.9648 144.151 31.7519 143.468 32.4077C142.758 33.0696 141.911 33.5649 140.987 33.8578C139.849 34.2088 138.663 34.3755 137.473 34.3516H112.327C110.261 34.3516 108.695 33.8571 107.628 32.8682C106.561 31.8793 106.027 30.4775 106.027 28.6629C106.025 28.0949 106.072 27.5278 106.168 26.9679L107.716 16.9936ZM117.116 15.4024C115.378 15.4024 114.381 16.2744 114.123 18.0185L112.856 25.9332C112.834 26.0376 112.822 26.144 112.821 26.2507V26.5329C112.821 27.8758 113.56 28.5473 115.038 28.5473H136.513C137.358 28.5473 138.045 28.3233 138.572 27.8752C139.099 27.4271 139.425 26.7798 139.548 25.9332L140.805 18.0283C140.827 17.9291 140.839 17.828 140.841 17.7265V17.4521C140.841 16.087 140.09 15.4037 138.588 15.4024H117.116Z" fill="#7F8C8D"/>
<path d="M173.965 18.0283C173.987 17.929 173.998 17.828 174 17.7265V17.4521C174 16.087 173.249 15.4037 171.748 15.4024H160.729C158.995 15.4024 157.997 16.2777 157.737 18.0283L155.378 32.8682C155.238 33.8571 154.674 34.3516 153.688 34.3516H150.098C149.113 34.3516 148.69 33.8571 148.831 32.8682L151.33 16.9956C151.493 15.9263 151.789 14.8816 152.21 13.8857C152.581 13.0098 153.127 12.219 153.813 11.5616C154.523 10.9003 155.37 10.4057 156.294 10.1135C157.431 9.76063 158.618 9.59325 159.808 9.61773H172.269C173.723 9.61773 174.925 9.86529 175.876 10.3604C176.789 10.8155 177.525 11.561 177.971 12.4807C178.664 11.5516 179.586 10.8206 180.648 10.3604C181.755 9.85484 183.141 9.60205 184.806 9.60205H197.268C199.333 9.60205 200.899 10.0965 201.967 11.0855C203.036 12.0744 203.569 13.4761 203.568 15.2907C203.57 15.8594 203.523 16.4271 203.428 16.9877L200.929 32.8603C200.788 33.8493 200.225 34.3438 199.238 34.3438H195.648C194.662 34.3438 194.239 33.8493 194.381 32.8603L196.739 18.0283C196.761 17.929 196.773 17.828 196.775 17.7265V17.4521C196.775 16.087 196.024 15.4037 194.522 15.4024H183.506C181.769 15.4024 180.773 16.2744 180.515 18.0185L178.155 32.8584C178.014 33.8473 177.451 34.3418 176.466 34.3418H172.874C171.889 34.3418 171.466 33.8473 171.607 32.8584L173.965 18.0283Z" fill="#7F8C8D"/>
<path d="M230.075 18.0283C230.096 17.9291 230.108 17.828 230.11 17.7265V17.4521C230.11 16.087 229.359 15.4037 227.857 15.4024H216.839C215.102 15.4024 214.104 16.2744 213.846 18.0185L211.488 32.8584C211.348 33.8473 210.785 34.3418 209.8 34.3418H206.21C205.223 34.3418 204.8 33.8473 204.941 32.8584L207.441 16.9858C207.605 15.9166 207.9 14.8719 208.32 13.8759C208.691 12.9976 209.236 12.2042 209.923 11.544C210.632 10.8867 211.477 10.3949 212.398 10.1037C213.535 9.75084 214.722 9.58345 215.912 9.60794H228.373C229.829 9.60794 231.032 9.8555 231.982 10.3506C232.894 10.8062 233.631 11.5516 234.077 12.4709C234.769 11.5418 235.691 10.8108 236.751 10.3506C237.855 9.85419 239.24 9.60663 240.906 9.60794H253.367C255.432 9.60794 256.998 10.1024 258.065 11.0913C259.133 12.0803 259.667 13.482 259.668 15.2966C259.669 15.8652 259.622 16.4329 259.528 16.9936L257.027 32.8662C256.886 33.8552 256.323 34.3496 255.338 34.3496H251.748C250.762 34.3496 250.339 33.8552 250.479 32.8662L252.851 18.0283C252.872 17.9289 252.883 17.8279 252.886 17.7265V17.4521C252.886 16.087 252.135 15.4037 250.633 15.4024H239.615C237.878 15.4024 236.88 16.2744 236.623 18.0185L234.262 32.8584C234.122 33.8473 233.558 34.3418 232.572 34.3418H228.992C228.006 34.3418 227.584 33.8473 227.725 32.8584L230.075 18.0283Z" fill="#7F8C8D"/>
<path d="M267.776 32.8584C267.635 33.8473 267.072 34.3418 266.085 34.3418H262.495C261.51 34.3418 261.087 33.8473 261.228 32.8584L264.678 11.0913C264.818 10.1037 265.382 9.60922 266.368 9.60791H269.958C270.945 9.60791 271.367 10.1024 271.225 11.0913L267.776 32.8584Z" fill="url(#paint0_linear_2_210)"/>
<path d="M293.332 32.8584C293.191 33.8473 292.628 34.3418 291.641 34.3418H288.051C287.065 34.3418 286.642 33.8473 286.784 32.8584L289.529 15.4024H274.85C273.887 15.4024 273.477 14.9079 273.619 13.919L274.087 11.0913C274.217 10.0985 274.777 9.60205 275.766 9.60205H311.706C312.692 9.60205 313.115 10.0965 312.975 11.0855L312.516 13.9131C312.375 14.9021 311.801 15.3965 310.792 15.3965H296.077L293.332 32.8584Z" fill="url(#paint1_linear_2_210)"/>
<path d="M213.001 47.226L213.255 45.5603C213.333 45.0391 213.645 44.7765 214.172 44.7765H216.593C217.101 44.7765 217.316 45.0391 217.237 45.5603L216.984 47.226C216.906 47.7485 216.606 48.0098 216.086 48.0098H213.665C213.146 48.0098 212.923 47.7394 213.001 47.226Z" fill="#7F8C8D"/>
<path d="M231.274 37.82C231.773 37.8012 232.269 37.9055 232.718 38.1237C233.076 38.3075 233.374 38.5896 233.577 38.937L234.319 34.2731C234.372 33.7911 234.645 33.5481 235.139 33.5481H236.954C237.423 33.5481 237.632 33.7911 237.579 34.2731L235.9 44.8941C235.789 45.7431 235.413 46.5352 234.827 47.1574C234.268 47.7257 233.429 48.0098 232.31 48.0098H222.022C221.202 48.0098 220.552 47.7877 220.07 47.3436C219.589 46.8994 219.348 46.2919 219.348 45.5212C219.349 45.3108 219.369 45.101 219.406 44.8941L220.031 40.9357C220.132 40.0854 220.505 39.2911 221.095 38.6724C221.661 38.1041 222.507 37.82 223.633 37.82H231.274ZM233.148 41.6804C233.163 41.6096 233.17 41.5372 233.167 41.4648C233.172 41.361 233.155 41.2572 233.116 41.1608C233.077 41.0643 233.018 40.9775 232.943 40.9063C232.77 40.7649 232.55 40.6948 232.328 40.7104H224.306C224.032 40.7015 223.764 40.7959 223.555 40.9749C223.345 41.1598 223.207 41.4131 223.164 41.6902L222.774 44.1592C222.759 44.2301 222.752 44.3024 222.754 44.3748C222.75 44.4786 222.767 44.5822 222.806 44.6786C222.845 44.775 222.904 44.8619 222.979 44.9333C223.15 45.0779 223.37 45.1514 223.594 45.139H231.617C231.892 45.1481 232.16 45.0537 232.369 44.8745C232.58 44.6905 232.718 44.4368 232.759 44.1592L233.148 41.6804Z" fill="#7F8C8D"/>
<path d="M254.895 41.0043C254.841 41.4344 254.733 41.8558 254.573 42.2584C254.436 42.6059 254.223 42.9175 253.948 43.1696C253.66 43.4246 253.32 43.615 252.953 43.7281C252.488 43.8689 252.003 43.935 251.518 43.9241H241.386L241.366 44.1396C241.351 44.2104 241.345 44.2828 241.347 44.3552C241.342 44.4591 241.359 44.5628 241.398 44.6592C241.437 44.7557 241.496 44.8425 241.571 44.9137C241.743 45.0583 241.963 45.1318 242.186 45.1194H253.041C253.523 45.1194 253.724 45.3624 253.646 45.8445L253.411 47.275C253.333 47.7583 253.06 48 252.592 48H240.605C239.785 48 239.134 47.7779 238.653 47.3338C238.171 46.8896 237.931 46.2821 237.931 45.5113C237.932 45.301 237.952 45.0912 237.989 44.8843L238.614 40.9259C238.714 40.0754 239.087 39.2807 239.678 38.6626C240.244 38.0943 241.09 37.8102 242.216 37.8102H252.504C253.324 37.8102 253.945 37.9996 254.368 38.3785C254.791 38.7573 255.002 39.3125 255.002 40.0441C255.002 40.274 254.982 40.5034 254.944 40.73L254.895 41.0043ZM241.718 41.8861H250.991C251.065 41.8917 251.141 41.8815 251.211 41.8562C251.282 41.8309 251.346 41.791 251.401 41.7391C251.494 41.6386 251.555 41.5124 251.576 41.3766L251.596 41.2982C251.607 41.25 251.614 41.2008 251.615 41.1513V41.0631C251.615 40.8162 251.473 40.6908 251.186 40.6908H242.889C242.615 40.6823 242.347 40.7766 242.138 40.9553C241.931 41.1417 241.797 41.3948 241.757 41.6706L241.718 41.8861Z" fill="#7F8C8D"/>
<path d="M261.142 47.4317L256.106 38.594C256.06 38.5115 256.038 38.4183 256.04 38.3241C256.043 38.2299 256.07 38.1381 256.12 38.0582C256.17 37.9783 256.24 37.9131 256.323 37.8695C256.406 37.8259 256.5 37.8054 256.594 37.8102H258.839C259.04 37.799 259.24 37.836 259.424 37.918C259.574 38.0106 259.696 38.1428 259.776 38.3001L263.66 45.1978L269.732 38.3001C269.852 38.1489 269.997 38.0196 270.161 37.918C270.345 37.836 270.546 37.799 270.747 37.8102H273.187C273.281 37.7975 273.376 37.818 273.456 37.868C273.536 37.9181 273.596 37.9947 273.626 38.0845C273.656 38.1713 273.662 38.2644 273.643 38.3541C273.624 38.4438 273.581 38.5267 273.519 38.594L265.671 47.4317C265.515 47.6146 265.32 47.7603 265.1 47.8586C264.881 47.9568 264.642 48.0051 264.402 48H262.255C261.734 48.0098 261.363 47.8139 261.142 47.4317Z" fill="#7F8C8D"/>
<path d="M271.254 47.226L271.508 45.5603C271.586 45.0391 271.899 44.7765 272.426 44.7765H274.846C275.354 44.7765 275.569 45.0391 275.491 45.5603L275.237 47.226C275.159 47.7485 274.859 48.0098 274.339 48.0098H271.918C271.399 48.0098 271.176 47.7394 271.254 47.226Z" fill="#7F8C8D"/>
<path d="M279.434 34.2634C279.487 33.7813 279.76 33.5383 280.254 33.5383H282.07C282.538 33.5383 282.747 33.7813 282.694 34.2634L281.952 38.9076C282.261 38.5619 282.641 38.2877 283.065 38.1042C283.553 37.8993 284.079 37.7992 284.607 37.8102H292.26C293.08 37.8102 293.731 38.0356 294.212 38.4863C294.453 38.724 294.641 39.0101 294.764 39.3259C294.886 39.6417 294.941 39.9799 294.925 40.3185V40.6222C294.924 40.7247 294.911 40.8267 294.886 40.926L294.261 44.8843C294.149 45.7334 293.773 46.5254 293.187 47.1476C292.628 47.7159 291.788 48.0001 290.669 48.0001H280.381C279.561 48.0001 278.91 47.778 278.429 47.3338C277.947 46.8896 277.706 46.2822 277.706 45.5114C277.708 45.3011 277.727 45.0912 277.765 44.8843L279.434 34.2634ZM281.132 44.1397C281.117 44.2105 281.111 44.2829 281.113 44.3552C281.108 44.4591 281.126 44.5627 281.165 44.6591C281.203 44.7554 281.262 44.8423 281.337 44.9137C281.509 45.0583 281.729 45.1319 281.952 45.1195H289.976C290.251 45.1283 290.519 45.034 290.727 44.8549C290.938 44.6709 291.077 44.4172 291.118 44.1397L291.508 41.6706C291.524 41.5998 291.53 41.5274 291.528 41.4551C291.533 41.3512 291.516 41.2474 291.477 41.151C291.438 41.0546 291.379 40.9678 291.303 40.8966C291.131 40.7548 290.911 40.6847 290.688 40.7006H282.665C282.386 40.6849 282.111 40.776 281.896 40.9554C281.686 41.1402 281.548 41.3935 281.505 41.6706L281.132 44.1397Z" fill="#7F8C8D"/>
<path d="M298.029 38.6627C298.596 38.1009 299.439 37.8201 300.557 37.8201H307.76C308.243 37.8201 308.444 38.0631 308.366 38.5451L308.131 39.9756C308.053 40.459 307.78 40.7007 307.311 40.7007H301.24C300.965 40.6918 300.697 40.7861 300.488 40.9652C300.279 41.1501 300.14 41.4034 300.098 41.6805L299.2 47.2849C299.122 47.7682 298.849 48.0099 298.38 48.0099H296.565C296.07 48.0099 295.862 47.7682 295.94 47.2849L296.955 40.9358C297.055 40.0806 297.433 39.282 298.029 38.6627Z" fill="#7F8C8D"/>
<path d="M24.9509 9.4003e-06C27.192 9.4003e-06 29.4409 -0.0156673 31.6723 9.4003e-06C32.9431 0.0117669 33.7767 0.821075 33.7865 1.97527C33.7982 3.16082 32.9314 3.98776 31.6391 3.99168C28.2657 4.00148 24.8923 3.99168 21.5189 3.99168C20.4394 3.99168 19.3579 3.99168 18.2783 3.99168C16.984 3.9956 16.0919 3.15102 16.1036 1.98507C16.1153 0.852428 16.984 0.0215648 18.2315 0.0117669C20.4706 9.39937e-06 22.7117 9.4003e-06 24.9509 9.4003e-06Z" fill="#7F8C8D"/>
<path d="M41.2107 29.5016C39.2097 29.5016 37.2087 29.5016 35.2058 29.5016C33.8861 29.5016 33.0213 28.7178 33.0115 27.5421C33.0017 26.3663 33.8939 25.5315 35.1804 25.5296C39.1837 25.5204 43.1876 25.5204 47.1922 25.5296C48.4845 25.5296 49.3396 26.3663 49.3396 27.5577C49.3396 28.7492 48.4611 29.5173 47.1395 29.5173H41.2107V29.5016Z" fill="#7F8C8D"/>
<path d="M34.4873 31.8884C35.4361 31.8884 36.3849 31.8668 37.3317 31.8884C38.5713 31.9217 39.442 32.7682 39.4439 33.893C39.4459 35.0178 38.5733 35.8761 37.3356 35.8918C35.4133 35.9166 33.4904 35.9166 31.5669 35.8918C30.2979 35.882 29.478 35.0766 29.478 33.9009C29.478 32.7251 30.3038 31.9236 31.5591 31.8923C32.5371 31.8688 33.5112 31.8884 34.4873 31.8884Z" fill="#494948"/>
<path d="M38.054 16.7545C37.0525 16.7545 36.0491 16.7663 35.0476 16.7545C33.8763 16.7369 33.0154 15.8962 33.0095 14.7793C33.0039 14.5135 33.0521 14.2493 33.1514 14.0028C33.2507 13.7563 33.3988 13.5327 33.5869 13.3455C33.7751 13.1583 33.9991 13.0116 34.2455 12.9141C34.492 12.8166 34.7556 12.7705 35.0203 12.7785C37.0779 12.7511 39.1349 12.7504 41.1912 12.7766C41.7055 12.7888 42.1949 13.0016 42.5557 13.3699C42.9164 13.7381 43.1201 14.2329 43.1237 14.7493C43.1272 15.2657 42.9303 15.7633 42.5747 16.1365C42.2191 16.5097 41.7326 16.7293 41.2185 16.7486C40.1643 16.7741 39.1082 16.7545 38.054 16.7545Z" fill="url(#paint2_linear_2_210)"/>
<path d="M12.7419 29.5055C11.9259 29.5055 11.1099 29.5251 10.2939 29.5055C9.1382 29.4722 8.33 28.6746 8.30462 27.5792C8.29247 27.3144 8.33398 27.0499 8.42663 26.8016C8.51928 26.5534 8.66115 26.3266 8.84365 26.1349C9.02616 25.9433 9.2455 25.7909 9.48839 25.6868C9.73129 25.5827 9.99271 25.5292 10.2568 25.5295C11.9669 25.4942 13.6783 25.4942 15.3911 25.5295C15.657 25.5252 15.9209 25.5762 16.1662 25.6793C16.4116 25.7825 16.6329 25.9356 16.8163 26.1289C16.9998 26.3222 17.1413 26.5516 17.232 26.8026C17.3227 27.0535 17.3605 27.3207 17.3432 27.5871C17.3179 28.6962 16.5194 29.4644 15.352 29.5035H12.7419V29.5055Z" fill="#7F8C8D"/>
<path d="M18.2569 23.1231C17.5717 23.1231 16.8903 23.1467 16.1993 23.1231C15.6902 23.1037 15.2083 22.8878 14.854 22.5204C14.4996 22.1531 14.3001 21.6626 14.2971 21.1513C14.2941 20.64 14.4877 20.1472 14.8377 19.7757C15.1877 19.4041 15.6671 19.1825 16.1758 19.157C17.5736 19.1217 18.9714 19.1236 20.3691 19.157C20.8782 19.1761 21.3603 19.3918 21.7149 19.759C22.0694 20.1261 22.2692 20.6165 22.2724 21.1279C22.2757 21.6392 22.0823 22.1321 21.7324 22.5038C21.3826 22.8755 20.9033 23.0974 20.3945 23.1231C19.682 23.1525 18.9694 23.1231 18.2569 23.1231Z" fill="url(#paint3_linear_2_210)"/>
<path d="M38.4464 0.0255151C38.8661 0.0255151 39.2897 -0.00387869 39.7075 0.0255151C40.1989 0.0571217 40.6603 0.273997 40.9992 0.632677C41.338 0.991356 41.5293 1.46534 41.5347 1.95962C41.5538 2.4672 41.3757 2.96236 41.0381 3.34072C40.7005 3.71908 40.2297 3.95107 39.725 3.98779C38.8593 4.04854 37.9904 4.04854 37.1247 3.98779C36.053 3.90941 35.3229 3.0178 35.3502 1.93611C35.3533 1.44246 35.5457 0.968968 35.8874 0.613928C36.2291 0.258889 36.6939 0.0495738 37.1853 0.0294342C37.603 -0.0019191 38.0247 0.0294342 38.4464 0.0294342V0.0255151Z" fill="#E8D172"/>
<path d="M9.78243 23.1232C9.41542 23.1232 9.04451 23.1467 8.67945 23.1232C8.18441 23.0838 7.7222 22.8591 7.38449 22.4936C7.04678 22.1282 6.85824 21.6487 6.85628 21.1502C6.85431 20.6517 7.03906 20.1708 7.37388 19.8026C7.70869 19.4345 8.16912 19.2061 8.66383 19.1628C9.42508 19.1148 10.1886 19.1148 10.9498 19.1628C11.4449 19.2022 11.9071 19.4269 12.2448 19.7924C12.5825 20.1578 12.771 20.6373 12.773 21.1358C12.775 21.6343 12.5902 22.1153 12.2554 22.4834C11.9206 22.8515 11.4602 23.0799 10.9655 23.1232C10.5731 23.1526 10.1768 23.1232 9.78243 23.1232Z" fill="#494948"/>
<path d="M18.8835 42.2997C18.5144 42.3001 18.1455 42.2798 17.7786 42.2389C17.3047 42.1654 16.8736 41.9215 16.5655 41.5528C16.2574 41.184 16.0932 40.7154 16.1036 40.2343C16.1115 39.7524 16.2961 39.2903 16.622 38.9364C16.9479 38.5825 17.3924 38.3615 17.8703 38.3158C18.5268 38.258 19.1869 38.2541 19.844 38.3041C20.3284 38.3409 20.7822 38.5556 21.1188 38.9071C21.4555 39.2586 21.6513 39.7223 21.669 40.2095C21.6866 40.6968 21.5248 41.1735 21.2144 41.5486C20.9041 41.9236 20.4669 42.1708 19.9865 42.2428C19.6201 42.2815 19.2519 42.3005 18.8835 42.2997Z" fill="#E8D172"/>
<path d="M47.0614 16.7565C45.5992 16.7565 44.7188 15.9981 44.7012 14.7969C44.6817 13.5565 45.5719 12.8373 46.9813 12.7471C48.9218 12.6257 49.8042 14.3952 49.1014 15.7081C48.6524 16.5527 47.893 16.8329 47.0614 16.7565Z" fill="#494948"/>
<path d="M46.1107 7.38578C45.9648 7.06067 45.7176 6.79196 45.4063 6.62018C45.095 6.4484 44.7366 6.38285 44.3849 6.43343C40.1975 6.43343 36.0081 6.40011 31.8187 6.41775C30.7567 6.41775 29.9661 7.34659 29.9837 8.41261C29.9836 8.67143 30.0347 8.9277 30.1339 9.1666C30.2331 9.40551 30.3785 9.62232 30.5616 9.80451C30.7448 9.98671 30.9621 10.1307 31.2009 10.2281C31.4398 10.3256 31.6956 10.3745 31.9534 10.3722C36.1174 10.3937 40.2814 10.4035 44.4474 10.3722C46.0423 10.3604 46.8662 8.81824 46.1107 7.38578Z" fill="#7F8C8D"/>
<path d="M25.843 31.8982C24.2657 31.8727 22.6883 31.8982 21.1109 31.9139H18.7683C16.9235 31.9139 15.0767 31.8649 13.2338 31.8982C12.0372 31.9217 11.2172 32.7918 11.2211 33.9087C11.225 35.0257 12.0977 35.8683 13.3373 35.8977C13.759 35.8977 14.1807 35.8801 14.6023 35.8683C14.7544 35.8108 14.8986 35.7344 15.0318 35.641C14.9025 35.7349 14.7622 35.8126 14.614 35.8722C15.3571 35.9686 16.1093 35.9719 16.8532 35.882H17.9484C20.5975 35.9761 23.2466 35.982 25.8957 35.882C27.1393 35.7958 27.9182 35.0473 27.9299 33.9225C27.9416 32.7977 27.0866 31.9198 25.843 31.8982Z" fill="url(#paint4_linear_2_210)"/>
<path d="M22.8191 25.5335C22.1116 25.4757 21.4006 25.4757 20.6932 25.5335C20.2709 25.5693 19.8716 25.7413 19.5549 26.0239C19.2382 26.3065 19.0211 26.6844 18.9362 27.1011C18.7605 27.9359 19.1197 28.9608 19.924 29.2292C21.1929 29.6506 22.5243 29.7623 23.7913 29.1038C23.8937 29.062 23.9866 28.9998 24.0644 28.921C24.1422 28.8422 24.2034 28.7484 24.2442 28.6453C25.0915 27.303 24.3633 25.6706 22.8191 25.5335Z" fill="#E8D172"/>
<path d="M28.418 8.30277C28.4191 7.80685 28.2254 7.33047 27.879 6.97688C27.5326 6.62328 27.0613 6.42095 26.5673 6.41374C24.17 6.39414 21.7708 6.41374 19.3716 6.42941C18.2647 6.44117 17.8098 6.78998 17.3374 8.01668C17.2944 9.35703 17.9699 10.3309 19.1412 10.3682C21.6439 10.4296 24.1479 10.4296 26.6532 10.3682C27.7211 10.3349 28.4512 9.39034 28.418 8.30277Z" fill="#494948"/>
<path d="M13.8781 6.402C12.2071 6.32558 11.2173 7.06434 11.2212 8.38706C11.2208 8.81417 11.3572 9.23011 11.6103 9.57344C11.8634 9.91677 12.2197 10.1693 12.6268 10.2937C13.763 10.6543 14.7742 10.3545 15.436 9.46679C15.5766 9.33826 15.6637 9.16122 15.68 8.97102C15.6937 8.86324 15.7093 8.7535 15.7249 8.64573C15.8557 7.3818 15.0982 6.46667 13.8781 6.402Z" fill="#E8D172"/>
<path d="M24.5546 14.2031C24.4358 13.7799 24.1787 13.4092 23.8246 13.1505C23.4705 12.8917 23.0401 12.76 22.6024 12.7765C19.2076 12.7765 15.8108 12.7765 12.414 12.7941C11.4379 12.8294 10.4618 12.5884 9.51692 12.9646C9.49621 12.9588 9.47409 12.9611 9.45493 12.9709C9.43578 12.9807 9.42098 12.9973 9.41346 13.0175C9.34006 13.0247 9.26931 13.0488 9.20668 13.0879C9.14405 13.127 9.09122 13.18 9.0523 13.2429C8.85427 13.3719 8.68866 13.5452 8.56843 13.7492C8.44821 13.9531 8.37662 14.1823 8.35928 14.4186C8.23043 15.7198 8.78485 16.4801 10.0343 16.7211C14.2965 16.7316 18.5568 16.7401 22.8152 16.7466C22.9434 16.7302 23.0688 16.6965 23.1881 16.6467C23.276 16.6507 23.3638 16.6352 23.4451 16.6014C23.5264 16.5675 23.5993 16.5161 23.6586 16.4507C24.5 15.857 24.8064 15.0888 24.5546 14.2031Z" fill="#7F8C8D"/>
<path d="M46.0189 32.7545L45.8959 32.5585L45.7397 32.3998C45.7087 32.4232 45.6793 32.4487 45.6519 32.4762C45.6793 32.4487 45.7087 32.4232 45.7397 32.3998C44.8769 31.759 42.7744 31.6356 41.9154 32.2039C41.5848 32.4001 41.3215 32.6927 41.1604 33.0427C40.9993 33.3927 40.9481 33.7835 41.0135 34.1634C41.1814 35.4156 42.1223 35.9917 43.7465 35.8467C44.0613 35.9321 44.3942 35.9219 44.7031 35.8173C45.0093 35.8188 45.309 35.7285 45.5639 35.5582C45.8187 35.3879 46.0173 35.1452 46.1341 34.8611C46.5928 34.1399 46.5265 33.4345 46.0189 32.7545ZM46.0033 32.7682L46.015 32.7584L46.0033 32.7682ZM46.1536 34.4691C46.1536 34.5554 46.1399 34.6416 46.1321 34.7278C46.1321 34.7709 46.1224 34.814 46.1165 34.8591C46.1165 34.814 46.1282 34.7709 46.1321 34.7278C46.1321 34.6416 46.1477 34.5554 46.1536 34.4691C46.1594 34.3829 46.1536 34.2967 46.1634 34.2105C46.1614 34.2928 46.1594 34.3829 46.1536 34.4691Z" fill="#E8D172"/>
<path d="M41.8529 39.713C41.5913 38.8645 40.7675 38.2884 39.7055 38.2864C35.9827 38.2864 32.2618 38.2982 28.539 38.306C27.479 38.3394 26.4014 38.0983 25.3628 38.4746C25.3408 38.4679 25.317 38.4696 25.2961 38.4793C25.2753 38.4891 25.2587 38.5062 25.2496 38.5275C25.1722 38.5345 25.0972 38.5583 25.0298 38.5972C24.9624 38.6361 24.9042 38.6892 24.8591 38.7528C24.6481 38.8736 24.469 39.0434 24.3369 39.2479C24.2048 39.4525 24.1234 39.6859 24.0997 39.9286C23.965 41.2376 24.5722 41.9979 25.9426 42.2389C30.6122 42.2494 35.2819 42.2579 39.9515 42.2644C40.0914 42.2476 40.229 42.2147 40.3615 42.1664C40.4571 42.1698 40.5523 42.1531 40.6411 42.1173C40.7298 42.0816 40.8101 42.0275 40.8768 41.9587C41.7924 41.3669 42.1262 40.6046 41.8529 39.713Z" fill="#7F8C8D"/>
</g>
<defs>
<linearGradient id="paint0_linear_2_210" x1="256.705" y1="22.1001" x2="273.137" y2="28.7772" gradientUnits="userSpaceOnUse">
<stop stop-color="#FBDA61"/>
<stop offset="1" stop-color="#F76B1C"/>
</linearGradient>
<linearGradient id="paint1_linear_2_210" x1="255.958" y1="22.0972" x2="277.18" y2="55.9041" gradientUnits="userSpaceOnUse">
<stop stop-color="#FBDA61"/>
<stop offset="1" stop-color="#F76B1C"/>
</linearGradient>
<linearGradient id="paint2_linear_2_210" x1="28.4834" y1="14.7799" x2="31.0941" y2="21.3745" gradientUnits="userSpaceOnUse">
<stop stop-color="#FBDA61"/>
<stop offset="1" stop-color="#F76B1C"/>
</linearGradient>
<linearGradient id="paint3_linear_2_210" x1="10.7285" y1="21.154" x2="13.7883" y2="27.247" gradientUnits="userSpaceOnUse">
<stop stop-color="#FBDA61"/>
<stop offset="1" stop-color="#F76B1C"/>
</linearGradient>
<linearGradient id="paint4_linear_2_210" x1="3.74488" y1="33.9413" x2="5.52621" y2="41.2576" gradientUnits="userSpaceOnUse">
<stop stop-color="#FBDA61"/>
<stop offset="1" stop-color="#F76B1C"/>
</linearGradient>
<clipPath id="clip0_2_210">
<rect width="313" height="48" fill="white"/>
</clipPath>
</defs>
</svg>
